<svg xmlns="http://www.w3.org/2000/svg" width="940" height="443" viewBox="0 0 940 443">
    <path fill="#FFF" fill-opacity=".036" fill-rule="evenodd" d="M0 219.485V66.853c0-20.273 2.535-29.84 7.295-38.782 4.76-8.942 11.744-15.96 20.644-20.742C36.839 2.547 46.36 0 66.539 0h20.522c20.178 0 29.7 2.547 38.6 7.329 8.9 4.782 15.885 11.8 20.644 20.742 4.76 8.942 7.295 18.51 7.295 38.782v87.473H92.155c.003-.225.005-.46.005-.703v-87.76c0-3.823-.396-5.208-1.14-6.606a7.772 7.772 0 0 0-3.225-3.24c-1.391-.748-2.77-1.146-6.574-1.146h-8.842c-3.804 0-5.183.398-6.574 1.145a7.772 7.772 0 0 0-3.225 3.241c-.744 1.398-1.14 2.783-1.14 6.605v87.761c0 .244.002.478.005.703l-.005 24.006 92.16 27.435v169.78c0 20.273-2.535 29.84-7.295 38.782-4.76 8.942-11.744 15.96-20.644 20.742-8.9 4.782-18.422 7.329-38.6 7.329H66.539c-20.178 0-29.7-2.547-38.6-7.329-8.9-4.782-15.885-11.8-20.644-20.742C2.535 405.387 0 395.82 0 375.547v-101.19h61.44v105.61c0 3.822.396 5.208 1.14 6.605a7.772 7.772 0 0 0 3.225 3.241c1.391.747 2.77 1.145 6.574 1.145h8.842c3.804 0 5.183-.398 6.574-1.145a7.772 7.772 0 0 0 3.225-3.24c.744-1.398 1.14-2.784 1.14-6.606V246.921L0 219.485zM427.792 0h22.816c21.154 0 30.628 2.547 39.606 7.329 8.979 4.782 16.025 11.8 20.827 20.742 4.802 8.942 7.359 18.377 7.359 39.445v307.368c0 21.068-2.557 30.503-7.359 39.445s-11.848 15.96-20.827 20.742c-8.978 4.782-18.452 7.329-39.606 7.329h-22.816c-21.154 0-30.628-2.547-39.606-7.329-8.979-4.782-16.025-11.8-20.827-20.742-4.802-8.942-7.359-18.377-7.359-39.445V67.516c0-21.068 2.557-30.503 7.359-39.445s11.848-15.96 20.827-20.742C397.164 2.547 406.638 0 427.792 0zm8.845 55.2c-6.948 0-10.674.955-14.047 2.75-3.374 1.794-6.021 4.426-7.825 7.781-1.804 3.355-2.765 7.06-2.765 13.97v283.798c0 6.91.96 10.615 2.765 13.97 1.804 3.355 4.451 5.987 7.825 7.781 3.373 1.795 7.099 2.75 14.047 2.75h5.926c6.948 0 10.674-.955 14.047-2.75 3.374-1.794 6.021-4.426 7.825-7.781 1.804-3.355 2.765-7.06 2.765-13.97V79.701c0-6.91-.96-10.615-2.765-13.97-1.804-3.355-4.451-5.987-7.825-7.781-3.373-1.795-7.099-2.75-14.047-2.75h-5.926zm-151.608-.329V442.4H230.17V54.871H185.6V0h144v54.871h-44.571zM664.629 0c20.357 0 29.963 2.547 38.942 7.329 8.978 4.782 16.025 11.8 20.827 20.742 4.801 8.942 7.359 18.51 7.359 38.782v151.525l-24.133 5.122L735.2 442.4h-61.983L645.83 236.502l-10.49 2.216V442.4H576.8V0h87.83zm-13.166 58.4H634.4v131.2l40.8-8.511V75.578c0-5.654-.631-7.942-1.817-10.174a12.4 12.4 0 0 0-5.14-5.175c-2.217-1.194-4.49-1.829-10.106-1.829h-6.674zm197.589 176.297l-8.913 1.886V442.4H781.6V0h58.54v187.498l29.067-6.153L878.017 0h57.248l-10.692 218.436-15.316 3.516L940 442.4h-61.983l-28.965-207.703z"/>
</svg>
