<svg xmlns="http://www.w3.org/2000/svg" width="40" height="57" viewBox="0 0 40 57">
    <g fill="none" fill-rule="evenodd">
        <path fill="#FF860D" d="M19.79 0c5.489 0 10.16 1.926 14.01 5.777 3.852 3.852 5.778 8.522 5.778 14.012 0 2.745-.686 5.888-2.058 9.43a58.132 58.132 0 0 1-4.98 9.96 197.95 197.95 0 0 1-5.778 8.7c-1.904 2.7-3.52 4.848-4.848 6.441l-2.125 2.258a478.49 478.49 0 0 0-2.125-2.457c-.885-1.018-2.48-3.055-4.781-6.11-2.302-3.054-4.317-6.02-6.043-8.898-1.727-2.877-3.298-6.131-4.715-9.761C.708 25.722 0 22.534 0 19.789 0 14.3 1.926 9.63 5.777 5.777 9.63 1.926 14.3 0 19.79 0z"/>
        <path fill="#FFF" d="M26.636 20.043h-14.71L10 16.022 13.473 12h14.71l-3.473 4.022 1.926 4.021zm.438.914L29 24.978 25.527 29h-14.71l3.473-4.022-1.926-4.021h14.71z"/>
    </g>
</svg>
