<svg xmlns="http://www.w3.org/2000/svg" width="295" height="78" viewBox="0 0 295 78">
    <g fill="#191919" fill-rule="evenodd" opacity=".802">
        <path d="M290.347 36.132v10.215c0 .471.092.808.278 1.01.172.188.457.282.854.282.126 0 .31-.035.553-.104a4.69 4.69 0 0 1 .444-.106c.152-.028.285-.042.395-.042.48 0 .882.195 1.206.582.298.357.447.8.447 1.329 0 .353-.103.68-.307.981-.188.278-.461.525-.817.744-.333.205-.69.359-1.07.463a4.498 4.498 0 0 1-1.18.154c-.419 0-.825-.022-1.218-.067a8.608 8.608 0 0 1-1.126-.2 3.307 3.307 0 0 1-1.13-.527 4.49 4.49 0 0 1-.95-.938c-.305-.395-.532-.887-.68-1.474-.142-.56-.213-1.209-.213-1.943V36.132h-1.609c-.294 0-.57-.05-.826-.15a2.022 2.022 0 0 1-.693-.448v-.002a1.978 1.978 0 0 1-.456-.679 2.14 2.14 0 0 1-.153-.811c0-.29.05-.56.153-.809.104-.253.258-.478.463-.67.205-.194.436-.338.692-.434a2.33 2.33 0 0 1 .82-.142h1.609v-2.515c0-.614.213-1.14.64-1.574.216-.22.464-.386.74-.496.274-.11.572-.164.895-.164a2.168 2.168 0 0 1 1.6.66c.209.215.368.456.477.722.107.268.162.552.162.852v2.515h2.524c.294 0 .57.05.826.15.26.102.49.251.692.45h.002c.2.195.352.423.456.68.102.252.153.523.153.81 0 .292-.051.562-.153.81a1.91 1.91 0 0 1-.464.671 2.042 2.042 0 0 1-.692.432 2.317 2.317 0 0 1-.82.142h-2.524zm-14.528-5.9c-.395 0-.74-.037-1.037-.111-.327-.081-.599-.21-.814-.387a1.65 1.65 0 0 1-.496-.701 2.521 2.521 0 0 1-.148-.892v-.575c0-.35.054-.657.162-.925.118-.293.3-.528.542-.705.422-.307 1.032-.46 1.828-.46.381 0 .718.037 1.012.111.322.082.59.21.802.386v-.001c.43.354.644.885.644 1.594v.575c0 .35-.051.656-.153.918a1.58 1.58 0 0 1-.525.706 2.14 2.14 0 0 1-.808.361c-.294.07-.63.105-1.009.105zm2.275 19.174c0 .615-.213 1.14-.64 1.574-.216.22-.463.386-.74.497a2.41 2.41 0 0 1-.895.163c-.312 0-.603-.056-.872-.165a2.168 2.168 0 0 1-.727-.495 2.213 2.213 0 0 1-.64-1.574v-15.58c0-.615.213-1.14.64-1.574.215-.218.458-.384.727-.495.269-.11.56-.165.872-.165.322 0 .62.055.895.163.277.111.524.277.74.497a2.209 2.209 0 0 1 .64 1.574v15.58zm-24.854-.95a2.72 2.72 0 0 1-.302-.61 1.97 1.97 0 0 1-.11-.635c0-.333.09-.644.27-.931.168-.267.411-.505.729-.712a1.91 1.91 0 0 1 .53-.252 2.06 2.06 0 0 1 1.443.093c.261.117.505.286.73.507l.02.024c.347.386.706.724 1.075 1.01.363.282.74.518 1.132.707.382.185.803.324 1.262.417.464.094.976.141 1.533.141v.002a5.34 5.34 0 0 0 1.18-.16c.364-.093.705-.229 1.02-.404.533-.299.8-.794.8-1.485 0-.321-.067-.598-.201-.83a1.738 1.738 0 0 0-.631-.61 7.711 7.711 0 0 0-1.249-.579 18.053 18.053 0 0 0-1.784-.55h-.002c-.69-.182-1.328-.37-1.91-.563a18.747 18.747 0 0 1-1.574-.598 6.595 6.595 0 0 1-2.48-1.87 4.361 4.361 0 0 1-.793-1.48 6.007 6.007 0 0 1-.258-1.808c0-.59.087-1.148.26-1.674a4.97 4.97 0 0 1 .779-1.471c.34-.444.735-.84 1.185-1.184a7.299 7.299 0 0 1 1.508-.882 8.456 8.456 0 0 1 1.733-.546 9.427 9.427 0 0 1 1.867-.183c1.233 0 2.46.227 3.68.681.621.231 1.188.525 1.697.88a6.8 6.8 0 0 1 1.353 1.244c.182.208.32.425.415.65.1.237.15.478.15.722 0 .272-.069.539-.205.8a2.57 2.57 0 0 1-.547.684l-.006.008c-.17.15-.366.265-.584.342a2.007 2.007 0 0 1-.677.113c-.286 0-.55-.05-.792-.148-.246-.1-.463-.25-.65-.45l-.008-.008a4.646 4.646 0 0 0-1.701-1.199 5.387 5.387 0 0 0-1.073-.32 6.482 6.482 0 0 0-1.199-.106c-.43 0-.819.041-1.168.123a3.48 3.48 0 0 0-.935.363 1.313 1.313 0 0 0-.528.543c-.124.242-.187.546-.187.91h-.001c.011.327.087.609.226.842.14.235.352.433.632.592a8.51 8.51 0 0 0 1.29.564c.54.194 1.174.385 1.9.572h.002c.66.17 1.264.348 1.81.53.55.184 1.049.377 1.496.579.468.21.899.47 1.291.78.393.31.75.671 1.067 1.081.332.427.58.92.744 1.476a6.3 6.3 0 0 1 .242 1.8c0 1.242-.366 2.323-1.1 3.243-.358.448-.77.846-1.237 1.191a7.427 7.427 0 0 1-1.55.871 9.08 9.08 0 0 1-1.745.53 9.577 9.577 0 0 1-1.846.177 12.7 12.7 0 0 1-2.316-.208 11.185 11.185 0 0 1-2.148-.623 8.319 8.319 0 0 1-1.928-1.093 8.805 8.805 0 0 1-1.6-1.585l-.026-.035zm-7.275-18.225c-.396 0-.74-.036-1.036-.11-.328-.081-.6-.21-.815-.387a1.652 1.652 0 0 1-.496-.701 2.521 2.521 0 0 1-.148-.892v-.575c0-.35.053-.657.162-.925.118-.293.299-.528.542-.705.423-.307 1.032-.46 1.827-.46.382 0 .72.037 1.014.111.32.082.588.21.8.386l.001-.001c.429.354.644.885.644 1.594v.575c0 .35-.052.656-.153.918a1.58 1.58 0 0 1-.526.706 2.135 2.135 0 0 1-.807.361c-.294.07-.631.105-1.01.105zm2.275 19.175c0 .615-.213 1.14-.64 1.574-.216.22-.464.386-.74.497a2.41 2.41 0 0 1-.895.163 2.165 2.165 0 0 1-1.6-.66 2.213 2.213 0 0 1-.64-1.574v-15.58c0-.615.215-1.14.64-1.574a2.173 2.173 0 0 1 1.6-.66c.322 0 .62.055.894.163.277.111.524.277.74.497a2.2 2.2 0 0 1 .64 1.574v15.58zm-11.267-17.814c.602 0 1.112.197 1.53.592.208.197.366.415.472.651.109.243.164.501.164.776 0 .283-.1.651-.302 1.1v.003l-6.96 15.544-.005.008a2.398 2.398 0 0 1-1.333 1.242 2.186 2.186 0 0 1-.575.128c-.247.03-.49.022-.728-.026a2.2 2.2 0 0 1-1.242-.724 2.49 2.49 0 0 1-.396-.628h-.001l-6.961-15.544-.003-.006-.014-.04a4.812 4.812 0 0 1-.155-.554 2.56 2.56 0 0 1-.056-.503 1.8 1.8 0 0 1 .165-.756c.106-.23.26-.446.462-.645l.003-.002c.21-.207.454-.362.73-.466.266-.1.56-.15.879-.15.226 0 .446.029.66.088a2.3 2.3 0 0 1 .602.26c.378.232.675.574.89 1.025l.007.013 5.059 11.547 5.059-11.547.008-.013c.434-.915 1.115-1.373 2.041-1.373zM204.14 41.706c0-1.213-.255-2.292-.764-3.236a5.886 5.886 0 0 0-.894-1.252 5.326 5.326 0 0 0-1.153-.927 5.337 5.337 0 0 0-1.355-.579 5.775 5.775 0 0 0-1.51-.191c-1.052 0-2.007.257-2.864.77a5.334 5.334 0 0 0-1.154.927h.001a5.886 5.886 0 0 0-.894 1.252c-.254.47-.445.974-.572 1.512a7.465 7.465 0 0 0-.193 1.724c0 1.19.255 2.25.763 3.18.252.462.55.876.894 1.239.34.358.726.666 1.155.924.431.258.883.451 1.356.579a5.77 5.77 0 0 0 1.508.191c.533 0 1.036-.064 1.51-.191.472-.128.924-.321 1.355-.58.43-.257.815-.565 1.155-.923.343-.363.642-.777.894-1.239.508-.93.762-1.99.762-3.18zm4.514 0c0 .975-.112 1.904-.337 2.786a9.913 9.913 0 0 1-1.014 2.5 9.896 9.896 0 0 1-1.597 2.094 9.77 9.77 0 0 1-2.092 1.585 10.01 10.01 0 0 1-2.46.996c-.862.222-1.758.333-2.69.333-.93 0-1.828-.11-2.689-.333a10.013 10.013 0 0 1-2.46-.996 9.77 9.77 0 0 1-2.092-1.585 9.913 9.913 0 0 1-1.597-2.095 9.905 9.905 0 0 1-1.014-2.5 11.249 11.249 0 0 1-.337-2.785c0-.973.112-1.905.337-2.793.224-.888.562-1.73 1.012-2.526a9.94 9.94 0 0 1 1.597-2.122 9.628 9.628 0 0 1 2.094-1.596 9.991 9.991 0 0 1 2.46-.996c.86-.222 1.758-.333 2.69-.333.93 0 1.827.111 2.69.333a9.987 9.987 0 0 1 2.459.996c.78.442 1.478.975 2.094 1.596a9.904 9.904 0 0 1 1.597 2.122c.45.796.788 1.638 1.012 2.526.225.888.337 1.82.337 2.793zm-28.74-5.574v10.215c0 .471.093.808.279 1.01.171.188.456.282.853.282.126 0 .31-.035.553-.104.164-.046.312-.083.444-.106.153-.028.285-.042.395-.042.48 0 .882.195 1.206.582.297.357.447.8.447 1.329 0 .353-.103.68-.307.981-.188.278-.461.525-.817.744-.332.205-.69.359-1.07.463a4.498 4.498 0 0 1-1.181.154c-.418 0-.824-.022-1.217-.067a8.617 8.617 0 0 1-1.126-.2 3.305 3.305 0 0 1-1.129-.527 4.492 4.492 0 0 1-.952-.938c-.303-.395-.53-.887-.68-1.474-.141-.56-.212-1.209-.212-1.943V36.132h-1.609c-.294 0-.57-.05-.827-.15a2.025 2.025 0 0 1-.692-.448v-.002a1.996 1.996 0 0 1-.457-.679 2.151 2.151 0 0 1-.152-.811c0-.29.05-.56.152-.809a2.035 2.035 0 0 1 1.156-1.104 2.33 2.33 0 0 1 .82-.142h1.609v-2.515c0-.614.213-1.14.64-1.574.216-.22.463-.386.74-.496a2.4 2.4 0 0 1 .895-.164c.311 0 .603.055.87.165.27.112.514.277.729.495.21.215.37.456.478.722.108.268.162.552.162.852v2.515h2.524c.294 0 .57.05.826.15.26.102.49.251.692.45h.001c.2.195.354.423.457.68.102.252.153.523.153.81 0 .292-.051.562-.153.81a1.92 1.92 0 0 1-.464.671 2.045 2.045 0 0 1-.691.432 2.317 2.317 0 0 1-.82.142h-2.525zm-20.849 13.274a2.186 2.186 0 0 1-.664 1.583c-.443.433-.98.651-1.61.651a2.165 2.165 0 0 1-1.6-.66 2.213 2.213 0 0 1-.64-1.574V26.234c0-.303.057-.59.17-.857a2.19 2.19 0 0 1 .494-.723l.003-.002a2.232 2.232 0 0 1 1.609-.652 2.167 2.167 0 0 1 1.599.66c.21.214.37.455.478.722.107.267.161.551.161.852v23.172zm-11.3 0c0 .304-.056.59-.168.857-.113.27-.278.511-.496.726-.442.433-.98.651-1.61.651-.312 0-.603-.056-.872-.165a2.168 2.168 0 0 1-.727-.495 2.206 2.206 0 0 1-.64-1.574V26.234c0-.303.056-.59.168-.857a2.2 2.2 0 0 1 .496-.723l.002-.002a2.241 2.241 0 0 1 1.609-.652 2.175 2.175 0 0 1 1.6.66 2.207 2.207 0 0 1 .639 1.574v23.172zm-20.72-1.587c.527 0 1.023-.065 1.485-.196.463-.13.894-.325 1.293-.582.81-.524 1.446-1.249 1.907-2.175.232-.467.407-.966.523-1.495.117-.532.176-1.1.176-1.701 0-.59-.06-1.147-.176-1.674a6.5 6.5 0 0 0-.523-1.486 5.828 5.828 0 0 0-.826-1.247 5.307 5.307 0 0 0-1.086-.948 4.699 4.699 0 0 0-1.291-.596 5.36 5.36 0 0 0-1.481-.198 5.45 5.45 0 0 0-1.485.196 4.75 4.75 0 0 0-1.292.582c-.81.523-1.446 1.249-1.907 2.174a6.509 6.509 0 0 0-.523 1.496 7.901 7.901 0 0 0-.176 1.7c0 .602.06 1.17.176 1.702a6.49 6.49 0 0 0 .523 1.495c.46.926 1.096 1.651 1.907 2.175.399.257.83.452 1.292.582.463.131.958.196 1.485.196zm7.476-16.3c.32 0 .615.053.888.158.277.106.523.266.739.477h.002c.217.213.38.46.488.741.105.272.158.57.158.895v15.616a2.2 2.2 0 0 1-.64 1.574c-.216.22-.464.386-.74.497a2.41 2.41 0 0 1-.895.163c-.659 0-1.198-.214-1.617-.642a2.099 2.099 0 0 1-.469-.726 2.27 2.27 0 0 1-.13-.51c-.098.09-.199.176-.302.262-.457.376-.977.72-1.56 1.031a7.944 7.944 0 0 1-3.8.945 9.306 9.306 0 0 1-2.516-.335 8.776 8.776 0 0 1-2.284-1.004 8.935 8.935 0 0 1-1.924-1.597 9.726 9.726 0 0 1-1.45-2.111 10.685 10.685 0 0 1-.907-2.505 12.46 12.46 0 0 1-.302-2.778c0-1.95.403-3.71 1.21-5.283a9.79 9.79 0 0 1 1.444-2.109 8.976 8.976 0 0 1 1.91-1.598v-.002a8.721 8.721 0 0 1 2.249-1.001 8.956 8.956 0 0 1 2.46-.337c.68 0 1.341.07 1.985.211.642.142 1.259.352 1.848.632a8.72 8.72 0 0 1 1.941 1.239c.025-.174.068-.341.128-.5a2.17 2.17 0 0 1 1.194-1.236c.272-.11.57-.166.892-.166zm-22.011-4.543c.376.2.662.46.857.78.196.321.295.69.295 1.105 0 .273-.048.538-.143.793-.092.25-.23.488-.412.711a1.928 1.928 0 0 1-.7.57 2.09 2.09 0 0 1-.911.196c-.21 0-.421-.027-.633-.08a2.708 2.708 0 0 1-.6-.233l-.009-.006a9.405 9.405 0 0 0-4.657-1.192c-.877 0-1.699.094-2.464.28a8.383 8.383 0 0 0-2.134.84 7.841 7.841 0 0 0-3.082 3.128 8.711 8.711 0 0 0-.831 2.174 10.74 10.74 0 0 0-.279 2.498c0 .96.096 1.848.288 2.666.19.81.476 1.556.856 2.235.38.679.832 1.276 1.352 1.79.52.514 1.113.948 1.777 1.302a8.839 8.839 0 0 0 2.128.803c.75.178 1.546.267 2.389.267 1.714 0 3.263-.407 4.646-1.222l.034-.02a2.59 2.59 0 0 1 .573-.201c.199-.045.402-.068.61-.068.706 0 1.27.27 1.691.812.177.22.312.45.403.688.096.252.144.509.144.77 0 .382-.106.74-.317 1.075a2.158 2.158 0 0 1-.833.773c-.498.275-1.023.521-1.57.735a15.704 15.704 0 0 1-3.577.932 13.55 13.55 0 0 1-1.804.123c-1.22 0-2.397-.134-3.531-.403a14.127 14.127 0 0 1-3.25-1.203 12.308 12.308 0 0 1-2.8-1.982 12.73 12.73 0 0 1-2.166-2.706 12.42 12.42 0 0 1-1.39-3.338A15.34 15.34 0 0 1 92 38.54c0-1.253.147-2.448.442-3.584a12.808 12.808 0 0 1 1.33-3.232 12.863 12.863 0 0 1 2.107-2.727 13.026 13.026 0 0 1 2.777-2.07 13.332 13.332 0 0 1 3.292-1.306 15.021 15.021 0 0 1 3.649-.434c2.453 0 4.758.597 6.912 1.79v-.001zM10.227 31.3c-1.94 7.336-1.12 15.42 2.922 22.51 4.043 7.095 10.543 11.858 17.783 13.823a28.867 28.867 0 0 0 22.221-2.96 29.474 29.474 0 0 0 10.91-11.197 29.966 29.966 0 0 0 3.668-12.439 16.21 16.21 0 0 1-5.35 1.51 24.475 24.475 0 0 1-7.644 14.545c-4.306 3.962-10.015 6.358-16.23 6.358-6.666 0-12.7-2.737-17.067-7.162A24.533 24.533 0 0 1 14.37 39a24.531 24.531 0 0 1 7.07-17.288c4.367-4.425 10.401-7.162 17.066-7.162 4.324 0 8.486 1.176 12.108 3.304a24.28 24.28 0 0 1 8.843 9.01c.076.133.134.272.177.413a2.606 2.606 0 0 0 2.262 1.292c.725 0 1.382-.298 1.858-.779.477-.477.769-1.142.769-1.882 0-.27-.038-.532-.11-.776l-.265-.495-.208-.377a1.884 1.884 0 0 1-.129-.225c-4.048-7.032-10.517-11.754-17.718-13.709a28.874 28.874 0 0 0-22.078 2.873c-.08.058-.166.109-.255.154-6.941 4.1-11.604 10.653-13.533 17.948zM21.924 9.88c8.027-4.649 17.017-5.574 25.174-3.36C55.215 8.722 62.51 14.032 67.1 21.936a6.684 6.684 0 0 1 1.317 3.971 6.633 6.633 0 0 1-1.915 4.668 6.434 6.434 0 0 1-8.081.918 6.567 6.567 0 0 1-2.403-2.737c-1.863-3.251-4.39-5.756-7.352-7.496a20.035 20.035 0 0 0-10.16-2.766c-5.59 0-10.65 2.296-14.314 6.006A20.575 20.575 0 0 0 18.265 39a20.574 20.574 0 0 0 5.928 14.498c3.663 3.711 8.724 6.006 14.313 6.006 5.22 0 10.007-2.006 13.614-5.325 3.26-3 5.558-7.07 6.341-11.698a16.24 16.24 0 0 1-7.143-2.82C50.978 46.534 45.368 52 38.5 52c-7.477 0-13.331-6.495-12.795-14.016C26.212 31.336 31.695 26 38.5 26c5.297 0 8.86 2.842 11.374 6.927 2.276 3.63 6.28 6.04 10.84 6.04 7.049 0 12.834-5.78 12.834-13 0-6.412-5.817-13.081-10.553-17.048C56.342 3.348 47.81 0 38.5 0 17.92 0 1.117 16.297.047 37.076-1.029 59.357 16.414 78 38.5 78 59.763 78 77 60.54 77 39c0-2.553-.264-5.08-.758-7.564a16.7 16.7 0 0 1-4.565 6.942 33.92 33.92 0 0 1-4.222 17.025A33.37 33.37 0 0 1 55.1 68.08a32.7 32.7 0 0 1-25.173 3.36c-8.2-2.225-15.562-7.62-20.142-15.656-4.582-8.039-5.514-17.195-3.317-25.5C8.666 21.977 13.99 14.52 21.924 9.88z"/>
    </g>
</svg>
