<svg xmlns="http://www.w3.org/2000/svg" width="148" height="50" viewBox="0 0 148 50">
    <g fill="none" fill-rule="evenodd">
        <ellipse cx="25.082" cy="25" fill="#FF860D" rx="25.082" ry="25"/>
        <path fill="#FFF" d="M35.965 24.224H13.531l-2.937-6.833 5.297-6.832h22.433l-5.297 6.832 2.938 6.833zm.668 1.552l2.938 6.833-5.297 6.832H11.84l5.297-6.832-2.938-6.833h22.434zM62.627 24.534V10.712c0-1.835.232-2.702.666-3.512a4.522 4.522 0 0 1 1.885-1.878c.812-.433 1.681-.664 3.523-.664h1.874c1.841 0 2.71.231 3.523.664A4.522 4.522 0 0 1 75.983 7.2c.434.81.665 1.677.665 3.512v7.922H71.04v-8.011c0-.346-.036-.472-.104-.598a.707.707 0 0 0-.294-.294c-.127-.068-.253-.104-.6-.104h-.808c-.347 0-.473.036-.6.104a.707.707 0 0 0-.294.294c-.068.126-.104.252-.104.598v10.184l8.412 2.485v15.374c0 1.836-.231 2.703-.665 3.512a4.522 4.522 0 0 1-1.885 1.879c-.812.433-1.682.663-3.523.663H68.7c-1.842 0-2.71-.23-3.523-.663a4.522 4.522 0 0 1-1.885-1.879c-.434-.81-.666-1.676-.666-3.512v-9.163h5.609v9.564c0 .346.036.471.104.598a.707.707 0 0 0 .294.293c.127.068.253.104.6.104h.807c.348 0 .474-.036.6-.104a.707.707 0 0 0 .295-.293c.068-.127.104-.252.104-.598V27.019l-8.413-2.485zm38.85-19.876h2.065c1.914 0 2.771.231 3.583.664A4.522 4.522 0 0 1 109.01 7.2c.434.81.666 1.665.666 3.572v27.834c0 1.908-.232 2.763-.666 3.572a4.522 4.522 0 0 1-1.885 1.879c-.812.433-1.67.663-3.583.663h-2.065c-1.914 0-2.771-.23-3.583-.663a4.522 4.522 0 0 1-1.885-1.879c-.434-.81-.666-1.664-.666-3.572V10.772c0-1.907.232-2.762.666-3.572a4.522 4.522 0 0 1 1.885-1.878c.812-.433 1.67-.664 3.583-.664zm.765 4.97c-.628 0-.964.086-1.269.248-.304.163-.544.4-.706.705-.163.303-.25.639-.25 1.264v25.689c0 .625.087.96.25 1.264.162.304.402.542.706.705.305.162.641.249 1.269.249h.535c.628 0 .964-.087 1.269-.25.304-.162.543-.4.706-.704.163-.303.25-.639.25-1.264V11.845c0-.625-.087-.96-.25-1.264a1.696 1.696 0 0 0-.706-.705c-.305-.162-.641-.249-1.269-.249h-.535zm-13.754 0V44.72h-4.985V9.627h-4.05V4.658h13.086v4.97h-4.05zm34.432-4.97c1.842 0 2.71.231 3.523.664a4.522 4.522 0 0 1 1.885 1.878c.434.81.666 1.677.666 3.512v13.722l-2.184.464 2.495 19.822h-5.608l-2.478-18.645-.95.2V44.72h-5.296V4.658h7.947zm-1.087 5.28h-1.564v11.904l3.74-.773v-9.573c0-.513-.058-.72-.167-.923a1.13 1.13 0 0 0-.471-.47c-.203-.107-.412-.165-.926-.165h-.612zm17.938 15.974l-.807.17V44.72h-5.297V4.658h5.297v16.98l2.63-.558.798-16.422h5.18l-.968 19.781-1.386.319L148 44.72h-5.608l-2.621-18.808z"/>
    </g>
</svg>
